<svg xmlns="http://www.w3.org/2000/svg" viewBox="0 0 1024 1024">
  <defs>
    <linearGradient id="glassFill" x1="214" y1="188" x2="760" y2="724" gradientUnits="userSpaceOnUse">
      <stop offset="0" stop-color="#FFD7B0" stop-opacity="0.94" />
      <stop offset="0.48" stop-color="#EA8E69" stop-opacity="0.84" />
      <stop offset="1" stop-color="#B84A33" stop-opacity="0.9" />
    </linearGradient>
    <radialGradient id="glassGlow" cx="0" cy="0" r="1" gradientUnits="userSpaceOnUse" gradientTransform="translate(390 250) rotate(32) scale(370 260)">
      <stop offset="0" stop-color="#FFFFFF" stop-opacity="0.9" />
      <stop offset="0.4" stop-color="#FFE6CC" stop-opacity="0.46" />
      <stop offset="1" stop-color="#FFE6CC" stop-opacity="0" />
    </radialGradient>
    <filter id="blur24" x="-20%" y="-20%" width="140%" height="140%">
      <feGaussianBlur stdDeviation="24" />
    </filter>
  </defs>
  <g fill="none">
    <path
      d="M330 143c97-46 215-29 294 54 98 103 107 274 14 373-79 84-199 113-302 76L199 735l66-139c-64-79-84-188-51-286 22-66 61-122 116-167z"
      fill="#F5A97B"
      fill-opacity="0.24"
      filter="url(#blur24)"
    />
    <path
      d="M330 143c97-46 215-29 294 54 98 103 107 274 14 373-79 84-199 113-302 76L199 735l66-139c-64-79-84-188-51-286 22-66 61-122 116-167z"
      fill="url(#glassFill)"
      stroke="#FFFFFF"
      stroke-opacity="0.46"
      stroke-width="14"
    />
    <path
      d="M330 143c97-46 215-29 294 54 98 103 107 274 14 373-79 84-199 113-302 76L199 735l66-139c-64-79-84-188-51-286 22-66 61-122 116-167z"
      fill="url(#glassGlow)"
    />
    <path
      d="M280 214c61-71 154-107 252-95"
      stroke="#FFFFFF"
      stroke-opacity="0.6"
      stroke-width="30"
      stroke-linecap="round"
    />
    <path
      d="M274 305c62-39 107-37 171-8"
      stroke="#FFFFFF"
      stroke-opacity="0.22"
      stroke-width="18"
      stroke-linecap="round"
    />
    <circle cx="385" cy="332" r="96" fill="#FFF8F0" fill-opacity="0.46" />
    <circle cx="430" cy="484" r="54" fill="#2A1A13" fill-opacity="0.8" />
    <circle cx="553" cy="484" r="54" fill="#2A1A13" fill-opacity="0.8" />
    <circle cx="676" cy="484" r="54" fill="#2A1A13" fill-opacity="0.8" />
    <circle cx="785" cy="245" r="60" fill="#FFE0C1" fill-opacity="0.48" />
  </g>
</svg>
